<?xml version="1.0" standalone="no"?>
<!DOCTYPE svg PUBLIC "-//W3C//DTD SVG 20010904//EN"
 "http://www.w3.org/TR/2001/REC-SVG-20010904/DTD/svg10.dtd">
<svg version="1.0" xmlns="http://www.w3.org/2000/svg"
 width="1920.000000pt" height="1920.000000pt" viewBox="0 0 1920.000000 1920.000000"
 preserveAspectRatio="xMidYMid meet">

<g transform="translate(0.000000,1920.000000) scale(0.100000,-0.100000)"
fill="#000000" stroke="none">
<path d="M10152 14556 c-78 -89 -177 -255 -302 -506 -109 -218 -154 -329 -206
-509 -74 -258 -108 -486 -97 -648 l4 -68 -67 69 c-54 56 -77 90 -122 185 -30
64 -71 141 -90 171 -150 238 -431 403 -766 449 -111 16 -327 14 -457 -5 -455
-63 -916 -307 -1161 -613 -59 -74 -120 -166 -133 -202 -5 -14 0 -15 57 -3 173
37 370 -8 738 -168 425 -185 487 -210 599 -248 319 -106 588 -112 804 -16 78
34 182 103 247 164 l55 51 -100 99 c-117 115 -257 211 -437 300 -129 63 -347
148 -458 178 -104 27 -98 37 20 31 383 -21 859 -246 1131 -535 104 -109 177
-230 356 -587 91 -181 197 -384 236 -450 164 -282 333 -654 381 -836 52 -203
61 -291 61 -624 0 -334 -9 -454 -66 -845 -29 -202 -106 -671 -111 -675 -2 -1
-55 -7 -119 -14 -555 -54 -1090 -274 -1529 -625 -99 -80 -313 -286 -383 -370
l-42 -49 40 6 c261 41 501 52 650 28 260 -41 508 -170 839 -435 228 -182 326
-249 449 -310 264 -131 504 -181 1107 -231 339 -28 346 -29 538 -57 l142 -20
54 55 c70 71 131 105 318 176 85 32 169 66 186 75 32 17 401 244 436 269 19
13 18 17 -28 96 -203 346 -533 691 -881 922 -274 182 -599 325 -907 399 -54
13 -98 29 -98 34 0 6 9 92 20 191 41 369 43 407 45 1065 1 702 4 743 55 1001
73 364 196 611 399 802 72 67 201 157 226 157 4 0 -14 -16 -41 -36 -191 -143
-328 -355 -410 -634 -29 -99 -74 -295 -74 -320 0 -22 89 -59 205 -86 110 -26
329 -26 440 0 262 61 489 189 671 378 178 185 251 324 348 653 70 241 98 299
193 398 98 103 281 196 487 248 47 12 86 26 86 30 0 11 -137 97 -219 135 -255
122 -604 171 -949 133 -682 -74 -1326 -449 -1539 -895 -61 -130 -83 -223 -83
-358 0 -123 15 -199 72 -358 32 -89 34 -103 26 -150 -10 -53 -55 -168 -67
-168 -3 0 -34 66 -68 148 -101 237 -186 376 -538 867 -259 363 -313 453 -388
655 -149 399 -142 839 18 1300 50 143 70 190 193 450 84 178 106 234 106 270
1 45 1 45 -35 48 -31 3 -41 -2 -67 -32z"/>
<path d="M8525 7590 c-49 -4 -189 -23 -310 -41 -204 -31 -238 -33 -470 -34
-137 0 -360 4 -495 9 -336 11 -444 -2 -671 -80 -326 -113 -530 -212 -779 -377
-148 -99 -239 -169 -483 -377 l-29 -26 32 -64 c121 -241 615 -1099 773 -1343
60 -93 72 -107 91 -101 11 4 77 35 146 69 316 158 607 190 1055 114 296 -50
532 -117 1255 -359 892 -298 1115 -355 1427 -367 172 -7 270 5 373 43 80 30
294 173 495 330 255 199 850 699 834 701 -110 15 -338 55 -562 99 -480 94
-712 124 -946 124 -291 0 -618 -57 -842 -147 -63 -25 -99 -33 -130 -31 -60 4
-57 23 8 60 162 91 544 173 863 185 285 10 531 -19 1045 -122 433 -87 524 -98
760 -92 171 4 202 8 309 35 148 39 289 106 339 161 111 123 14 277 -265 421
-262 135 -441 173 -1058 225 -515 43 -706 73 -938 150 -251 84 -355 146 -687
411 -310 247 -529 365 -759 409 -95 18 -270 25 -381 15z"/>
<path d="M13355 7261 c-165 -44 -306 -114 -605 -303 -167 -105 -211 -128 -370
-188 -159 -60 -220 -91 -271 -137 l-40 -36 103 -37 c134 -47 305 -136 393
-203 62 -48 131 -121 160 -171 9 -16 20 -11 102 41 109 68 308 215 553 409 96
75 246 191 333 257 137 103 197 161 197 189 0 4 -22 29 -50 56 -127 125 -318
172 -505 123z"/>
</g>
</svg>
