<?xml version="1.0" encoding="utf-8"?>
<svg viewBox="0 0 350 805" width="350" height="805" xmlns="http://www.w3.org/2000/svg">
  <path d="M 319.981 511.594 C 338.784 478.901 348.718 440.817 348.718 401.487 C 348.718 362.157 338.784 324.074 319.981 291.391 C 303.891 263.394 295.381 232.384 295.381 201.674 L 295.381 148.157 L 322.051 148.157 C 329.424 148.157 335.381 142.194 335.381 134.817 L 335.381 54.821 C 335.381 47.447 329.424 41.491 322.051 41.491 L 295.381 41.491 L 295.381 1.491 L 55.381 1.491 L 55.381 41.491 L 28.718 41.491 C 21.345 41.491 15.381 47.447 15.381 54.821 L 15.381 134.817 C 15.381 142.194 21.345 148.157 28.718 148.157 L 55.381 148.157 L 55.381 201.687 C 55.381 232.397 46.878 263.407 30.781 291.391 C 11.985 324.074 2.051 362.157 2.051 401.487 C 2.051 440.817 11.985 478.901 30.781 511.581 C 46.878 539.581 55.381 570.597 55.381 601.301 L 55.381 654.817 L 28.718 654.817 C 21.345 654.817 15.381 660.781 15.381 668.157 L 15.381 748.154 C 15.381 755.527 21.345 761.484 28.718 761.484 L 55.381 761.484 L 55.381 801.491 L 295.381 801.491 L 295.381 761.484 L 322.051 761.484 C 329.424 761.484 335.381 755.527 335.381 748.154 L 335.381 668.157 C 335.381 660.781 329.424 654.817 322.051 654.817 L 295.381 654.817 L 295.381 601.287 C 295.381 570.597 303.891 539.567 319.981 511.594 Z" style="fill : rgb(183, 183, 183); stroke : initial;"/>
  <path d="M 82.048 28.154 L 268.714 28.154 L 268.714 41.491 L 82.048 41.491 L 82.048 28.154 Z" style="fill: rgb(51, 125, 252);"/>
  <path d="M 268.714 774.821 L 82.048 774.821 L 82.048 761.484 L 268.714 761.484 L 268.714 774.821 Z" style="fill: rgb(61, 119, 236);"/>
  <path d="M 85.231 654.817 L 85.231 601.287 C 85.231 565.941 75.514 530.314 57.101 498.277 C 40.621 469.634 31.901 436.167 31.901 401.474 C 31.901 366.784 40.608 333.327 57.101 304.661 C 75.514 272.647 85.231 237.021 85.231 201.661 L 85.231 148.157 L 271.898 148.157 L 271.898 201.687 C 271.898 237.034 281.621 272.661 300.034 304.704 C 316.514 333.337 325.234 366.807 325.234 401.501 C 325.234 436.191 316.528 469.647 300.034 498.314 C 281.621 530.327 271.898 565.951 271.898 601.311 L 271.898 654.817 L 85.231 654.817 Z" style="fill: rgb(221, 59, 59);"/>
</svg>