<?xml version="1.0" encoding="iso-8859-1"?>
<!-- Uploaded to: SVG Repo, www.svgrepo.com, Generator: SVG Repo Mixer Tools -->
<!DOCTYPE svg PUBLIC "-//W3C//DTD SVG 1.1//EN" "http://www.w3.org/Graphics/SVG/1.1/DTD/svg11.dtd">
<svg fill="#000000" height="800px" width="800px" version="1.1" id="Capa_1" xmlns="http://www.w3.org/2000/svg" xmlns:xlink="http://www.w3.org/1999/xlink" 
	 viewBox="0 0 60 60" xml:space="preserve">
<g>

<path d="M41.345 38.258c1.41 -2.452 2.155 -5.308 2.155 -8.258s-0.745 -5.806 -2.155 -8.257c-1.207 -2.1 -1.845 -4.426 -1.845 -6.729v-4.014h2c0.553 0 1 -0.447 1 -1v-6c0 -0.553 -0.447 -1 -1 -1h-2v-3h-18v3h-2c-0.553 0 -1 0.447 -1 1v6c0 0.553 0.447 1 1 1h2v4.015c0 2.303 -0.638 4.629 -1.845 6.728c-1.41 2.451 -2.155 5.307 -2.155 8.257s0.745 5.806 2.155 8.257c1.207 2.1 1.845 4.426 1.845 6.729v4.014h-2c-0.553 0 -1 0.447 -1 1v6c0 0.553 0.447 1 1 1h2v3h18v-3h2c0.553 0 1 -0.447 1 -1v-6c0 -0.553 -0.447 -1 -1 -1h-2v-4.015c0 -2.302 0.638 -4.629 1.845 -6.727z"/>

<path d="M23.5 2h14v1h-14v-1z"/>

<path d="M20.5 9v-4h1h18h1v4h-1h-18h-1z" />

<path d="M37.5 58h-14v-1h14v1z" />

<path d="M40.5 51v4h-1h-18h-1v-4h1h18h1z" />

<path d="M23.5 49v-4.015c0 -2.651 -0.729 -5.323 -2.11 -7.726c-1.236 -2.148 -1.89 -4.658 -1.89 -7.26s0.653 -5.111 1.89 -7.261c1.381 -2.401 2.11 -5.073 2.11 -7.725v-4.013h14v4.015c0 2.651 0.729 5.323 2.11 7.726c1.236 2.148 1.89 4.658 1.89 7.26s-0.653 5.111 -1.89 7.261c-1.381 2.401 -2.11 5.073 -2.11 7.725v4.013h-14z" />

</g>
</svg>